<svg width="177" height="68" viewBox="0 0 177 68" fill="none" xmlns="http://www.w3.org/2000/svg">
<rect width="177" height="68" rx="34" fill="#211A75"/>
<path d="M63.008 40V29.072H70.272V30.912H65.216V33.568H69.312V35.376H65.216V38.16H70.272V40H63.008ZM71.8205 40V29.072H74.7005L78.2045 36.752H78.4925V29.072H80.7005V40H77.8525L74.3165 32.192H74.0285V40H71.8205ZM86.9511 40.16C86.0338 40.16 85.2765 40.0427 84.6791 39.808C84.0818 39.5627 83.6125 39.2053 83.2711 38.736C82.9405 38.256 82.7058 37.6693 82.5671 36.976C82.4285 36.272 82.3591 35.4613 82.3591 34.544C82.3591 33.5733 82.4338 32.736 82.5831 32.032C82.7431 31.3173 82.9991 30.7307 83.3511 30.272C83.7138 29.8027 84.1831 29.456 84.7591 29.232C85.3458 28.9973 86.0658 28.88 86.9191 28.88C87.3565 28.88 87.8098 28.9067 88.2791 28.96C88.7591 29.0027 89.2125 29.0613 89.6391 29.136C90.0765 29.2107 90.4391 29.2853 90.7271 29.36L90.6951 31.088C90.3965 31.0347 90.0338 30.9867 89.6071 30.944C89.1911 30.9013 88.7645 30.8693 88.3271 30.848C87.8898 30.816 87.4951 30.8 87.1431 30.8C86.6098 30.8 86.1725 30.8693 85.8311 31.008C85.5005 31.1467 85.2445 31.3707 85.0631 31.68C84.8925 31.9787 84.7751 32.368 84.7111 32.848C84.6471 33.3173 84.6151 33.8827 84.6151 34.544C84.6151 35.3867 84.6738 36.0907 84.7911 36.656C84.9191 37.2107 85.1591 37.6213 85.5111 37.888C85.8738 38.1547 86.3911 38.288 87.0631 38.288C87.2338 38.288 87.4151 38.2827 87.6071 38.272C87.8098 38.2613 88.0018 38.2453 88.1831 38.224C88.3751 38.2027 88.5351 38.1813 88.6631 38.16V35.776H87.3671V34.096H90.7591V39.744C90.5245 39.776 90.2418 39.8187 89.9111 39.872C89.5805 39.9147 89.2338 39.9573 88.8711 40C88.5191 40.0427 88.1725 40.08 87.8311 40.112C87.5005 40.144 87.2071 40.16 86.9511 40.16ZM92.5861 40V29.072H94.7941V38.128H99.1141V40H92.5861ZM100.305 40V29.072H102.513V40H100.305ZM108.075 40.176C107.67 40.176 107.227 40.1493 106.747 40.096C106.267 40.0533 105.798 40 105.339 39.936C104.891 39.8613 104.507 39.7973 104.187 39.744L104.331 38C104.662 38.0427 105.046 38.0907 105.483 38.144C105.921 38.1867 106.353 38.224 106.779 38.256C107.217 38.288 107.595 38.304 107.915 38.304C108.523 38.304 108.966 38.1867 109.243 37.952C109.521 37.7067 109.659 37.328 109.659 36.816C109.659 36.5387 109.601 36.32 109.483 36.16C109.377 35.9893 109.179 35.856 108.891 35.76C108.603 35.6533 108.203 35.552 107.691 35.456C106.838 35.296 106.145 35.0987 105.611 34.864C105.089 34.6293 104.705 34.2987 104.459 33.872C104.225 33.4453 104.107 32.8747 104.107 32.16C104.107 31.328 104.262 30.6773 104.571 30.208C104.881 29.728 105.323 29.3867 105.899 29.184C106.475 28.9813 107.153 28.88 107.931 28.88C108.283 28.88 108.683 28.9013 109.131 28.944C109.59 28.976 110.038 29.0187 110.475 29.072C110.923 29.1253 111.302 29.184 111.611 29.248L111.515 31.008C111.195 30.9653 110.822 30.928 110.395 30.896C109.979 30.8533 109.563 30.816 109.147 30.784C108.742 30.752 108.395 30.736 108.107 30.736C107.499 30.736 107.051 30.832 106.763 31.024C106.475 31.216 106.331 31.5253 106.331 31.952C106.331 32.272 106.395 32.5173 106.523 32.688C106.651 32.8587 106.865 32.9973 107.163 33.104C107.473 33.2107 107.894 33.3227 108.427 33.44C109.057 33.5787 109.59 33.728 110.027 33.888C110.475 34.048 110.833 34.24 111.099 34.464C111.377 34.688 111.579 34.976 111.707 35.328C111.835 35.68 111.899 36.1227 111.899 36.656C111.899 37.5093 111.745 38.1973 111.435 38.72C111.137 39.232 110.699 39.6053 110.123 39.84C109.558 40.064 108.875 40.176 108.075 40.176ZM113.43 40V29.072H115.638V33.632H119.878V29.072H122.086V40H119.878V35.488H115.638V40H113.43Z" fill="white"/>
<path d="M138 30H153L145.5 38L138 30Z" fill="#6418C3"/>
<g clip-path="url(#clip0_2150_9)">
<path d="M34 49C41.732 49 48 42.732 48 35C48 27.268 41.732 21 34 21C26.268 21 20 27.268 20 35C20 42.732 26.268 49 34 49Z" fill="#F0F0F0"/>
<path d="M33.3913 35H48C48 33.7364 47.8316 32.5122 47.5177 31.3478H33.3913V35Z" fill="#D80027"/>
<path d="M33.3913 27.6957H45.9452C45.0882 26.2972 43.9924 25.0611 42.7148 24.0435H33.3913V27.6957Z" fill="#D80027"/>
<path d="M34 49.0001C37.2949 49.0001 40.3233 47.8613 42.7148 45.9567H25.2852C27.6767 47.8613 30.7051 49.0001 34 49.0001Z" fill="#D80027"/>
<path d="M22.0548 42.3044H45.9452C46.6332 41.1817 47.1668 39.9545 47.5177 38.6522H20.4823C20.8332 39.9545 21.3668 41.1817 22.0548 42.3044Z" fill="#D80027"/>
<path d="M26.4851 23.1863H27.7609L26.5741 24.0484L27.0275 25.4435L25.8408 24.5813L24.6541 25.4435L25.0457 24.2383C24.0008 25.1087 23.085 26.1284 22.3303 27.2646H22.7391L21.9837 27.8134C21.866 28.0097 21.7532 28.2091 21.645 28.4115L22.0057 29.5217L21.3327 29.0328C21.1654 29.3872 21.0124 29.7496 20.8749 30.1196L21.2723 31.3428H22.7391L21.5524 32.205L22.0057 33.6L20.8191 32.7379L20.1082 33.2543C20.0371 33.8262 20 34.4088 20 35H34C34 27.2681 34 26.3565 34 21C31.2343 21 28.6562 21.8023 26.4851 23.1863ZM27.0275 33.6L25.8408 32.7379L24.6541 33.6L25.1074 32.205L23.9207 31.3428H25.3875L25.8408 29.9478L26.294 31.3428H27.7609L26.5741 32.205L27.0275 33.6ZM26.5741 28.1267L27.0275 29.5217L25.8408 28.6596L24.6541 29.5217L25.1074 28.1267L23.9207 27.2646H25.3875L25.8408 25.8695L26.294 27.2646H27.7609L26.5741 28.1267ZM32.0492 33.6L30.8625 32.7379L29.6759 33.6L30.1292 32.205L28.9424 31.3428H30.4093L30.8625 29.9478L31.3158 31.3428H32.7826L31.5959 32.205L32.0492 33.6ZM31.5959 28.1267L32.0492 29.5217L30.8625 28.6596L29.6759 29.5217L30.1292 28.1267L28.9424 27.2646H30.4093L30.8625 25.8695L31.3158 27.2646H32.7826L31.5959 28.1267ZM31.5959 24.0484L32.0492 25.4435L30.8625 24.5813L29.6759 25.4435L30.1292 24.0484L28.9424 23.1863H30.4093L30.8625 21.7913L31.3158 23.1863H32.7826L31.5959 24.0484Z" fill="#0052B4"/>
</g>
<defs>
<clipPath id="clip0_2150_9">
<rect width="28" height="28" fill="white" transform="translate(20 21)"/>
</clipPath>
</defs>
</svg>
