<svg width="277" height="88" viewBox="0 0 277 88" fill="none" xmlns="http://www.w3.org/2000/svg">
<path d="M223.347 39.0083L222.775 37.2933C222.695 37.0629 222.545 36.8629 222.347 36.7209C222.148 36.5789 221.911 36.5017 221.667 36.5H215.833C214.906 36.5027 214.017 36.8723 213.361 37.5281C212.706 38.1839 212.336 39.0726 212.333 40V42.3333H220.022L223.347 39.0083Z" fill="#7879F1"/>
<path d="M232.167 40H225.657L221.328 44.3283C221.106 44.5433 220.809 44.6644 220.5 44.6667H212.333V54C212.336 54.9274 212.706 55.8161 213.361 56.4719C214.017 57.1277 214.906 57.4973 215.833 57.5H232.167C233.094 57.4973 233.983 57.1277 234.639 56.4719C235.294 55.8161 235.664 54.9274 235.667 54V43.5C235.664 42.5726 235.294 41.6839 234.639 41.0281C233.983 40.3723 233.094 40.0027 232.167 40Z" fill="#7879F1"/>
<g filter="url(#filter0_d_2150_29)">
<rect x="220" y="17" width="26" height="26" rx="13" fill="#E328AF"/>
<rect x="218.5" y="15.5" width="29" height="29" rx="14.5" stroke="#15132B" stroke-width="3"/>
</g>
<path d="M231.98 31.71L231.84 25.438H233.856L233.73 31.71H231.98ZM231.882 35V32.942H233.828V35H231.882Z" fill="#0D0B21"/>
<path d="M167.333 41.3333V48.3333C167.331 50.1892 166.593 51.9685 165.281 53.2808C163.969 54.5931 162.189 55.3313 160.333 55.3333H153.333C153.024 55.3333 152.727 55.4562 152.508 55.675C152.29 55.8938 152.167 56.1905 152.167 56.5C152.167 56.8094 152.29 57.1061 152.508 57.3249C152.727 57.5437 153.024 57.6666 153.333 57.6666H160.333C162.808 57.6638 165.18 56.6795 166.93 54.9298C168.68 53.1801 169.664 50.8078 169.667 48.3333V41.3333C169.667 41.0239 169.544 40.7271 169.325 40.5083C169.106 40.2895 168.809 40.1666 168.5 40.1666C168.191 40.1666 167.894 40.2895 167.675 40.5083C167.456 40.7271 167.333 41.0239 167.333 41.3333Z" fill="#7879F1"/>
<path d="M160.333 54.1667C161.88 54.1649 163.363 53.5497 164.456 52.4562C165.55 51.3626 166.165 49.8799 166.167 48.3334V40.1667C166.165 38.6202 165.55 37.1375 164.456 36.0439C163.363 34.9504 161.88 34.3352 160.333 34.3334H152.167C150.62 34.3352 149.137 34.9504 148.044 36.0439C146.95 37.1375 146.335 38.6202 146.333 40.1667V48.3334C146.335 49.8799 146.95 51.3626 148.044 52.4562C149.137 53.5497 150.62 54.1649 152.167 54.1667H160.333ZM153.112 42.9832L154.603 45.0454L159.541 40.4767C159.768 40.2665 160.069 40.1553 160.379 40.1673C160.688 40.1794 160.98 40.3139 161.19 40.5411C161.4 40.7683 161.511 41.0697 161.499 41.379C161.487 41.6883 161.353 41.9801 161.126 42.1903L155.222 47.652C155.101 47.7641 154.957 47.8491 154.801 47.9016C154.644 47.954 154.478 47.9727 154.314 47.9563C154.15 47.94 153.991 47.889 153.848 47.8067C153.705 47.7244 153.581 47.6127 153.484 47.4789L151.222 44.3503C151.049 44.0993 150.982 43.7909 151.034 43.491C151.086 43.1911 151.253 42.9234 151.5 42.745C151.747 42.5666 152.053 42.4916 152.354 42.5361C152.655 42.5806 152.927 42.7411 153.112 42.9832Z" fill="#7879F1"/>
<g filter="url(#filter1_d_2150_29)">
<rect x="157" y="17" width="26" height="26" rx="13" fill="#5ECFFF"/>
</g>
<path d="M166.826 35V33.488L168.94 31.318C169.341 30.9073 169.687 30.548 169.976 30.24C170.265 29.9227 170.485 29.624 170.634 29.344C170.793 29.064 170.872 28.7653 170.872 28.448C170.872 27.9813 170.741 27.6687 170.48 27.51C170.219 27.342 169.799 27.258 169.22 27.258C168.987 27.258 168.73 27.272 168.45 27.3C168.17 27.328 167.899 27.3607 167.638 27.398C167.386 27.4353 167.167 27.4727 166.98 27.51L166.882 26.026C167.087 25.97 167.339 25.9093 167.638 25.844C167.946 25.7787 168.277 25.7227 168.632 25.676C168.996 25.62 169.351 25.592 169.696 25.592C170.704 25.592 171.474 25.8067 172.006 26.236C172.538 26.656 172.804 27.3093 172.804 28.196C172.804 28.6813 172.734 29.1107 172.594 29.484C172.463 29.8573 172.253 30.2167 171.964 30.562C171.684 30.898 171.311 31.2667 170.844 31.668L168.996 33.432H172.93V35H166.826Z" fill="#0D0B21"/>
<g clip-path="url(#clip0_2150_29)">
<path d="M85.5452 32C84.146 32 82.9998 33.1463 82.9998 34.5455V51.0909C82.9998 52.4901 84.146 53.6364 85.5452 53.6364H87.0156C86.9298 53.1123 86.8373 52.538 86.8242 52.0368C86.8242 49.7169 88.155 47.6365 90.1787 46.6314C89.6743 46.0256 89.3696 45.248 89.3696 44.4029C89.3696 42.4805 90.9439 40.9091 92.8671 40.9091C94.7904 40.9091 96.3634 42.4805 96.3634 44.4029C96.3634 45.2483 96.0587 46.0255 95.5543 46.6314C97.5787 47.6362 98.9088 49.7165 98.9088 52.0368C98.8779 52.638 98.8276 53.0623 98.6876 53.6364H108.454C109.853 53.6364 111 52.4901 111 51.0909V34.5455C111 33.1463 109.853 32 108.454 32H85.5452ZM85.5452 33.2727H108.454C109.17 33.2727 109.727 33.8294 109.727 34.5455V37.0909H84.2725V34.5455C84.2725 33.8294 84.8291 33.2727 85.5452 33.2727ZM101.764 40.9886L107.491 44.1705C107.929 44.4127 107.929 45.0419 107.491 45.2841L101.764 48.4659C101.339 48.7021 100.817 48.3948 100.818 47.9091V41.5455C100.802 41.0154 101.346 40.758 101.764 40.9886ZM92.8671 42.1818C91.631 42.1818 90.6423 43.169 90.6423 44.4029C90.6423 45.6367 91.631 46.6239 92.8671 46.6239C94.1032 46.6239 95.0907 45.6367 95.0907 44.4029C95.0907 43.169 94.1032 42.1818 92.8671 42.1818ZM91.3222 47.53C89.3999 48.1859 88.0969 49.9883 88.0969 52.0368C88.1111 52.55 88.2231 53.1035 88.3032 53.6364H97.3962C97.544 53.0322 97.6071 52.5652 97.6361 52.0368C97.6361 49.9889 96.3339 48.1875 94.412 47.5312C93.9451 47.7633 93.4216 47.8967 92.8671 47.8967C92.3124 47.8967 91.7894 47.7622 91.3222 47.53Z" fill="#464366"/>
<path d="M89.3634 54.9091C88.1849 54.9091 87.1877 55.7249 86.9025 56.8182H82.9998V58.0909H86.9025C87.1877 59.1842 88.1849 60 89.3634 60C90.5422 60 91.5419 59.1847 91.8268 58.0909H111V56.8182H91.8268C91.5419 55.7244 90.5422 54.9091 89.3634 54.9091Z" fill="#464366"/>
<path d="M107.182 34.5455V35.8182H108.454V34.5455H107.182Z" fill="#464366"/>
<path d="M104.636 34.5455V35.8182H105.909V34.5455H104.636Z" fill="#464366"/>
<path d="M102.091 34.5455V35.8182H103.363V34.5455H102.091Z" fill="#464366"/>
<path d="M99.5452 34.5455V35.8182H100.818V34.5455H99.5452Z" fill="#464366"/>
</g>
<g filter="url(#filter2_d_2150_29)">
<rect x="92.2468" y="17" width="24.7532" height="24.7532" rx="12.3766" fill="#5ECFFF"/>
</g>
<path d="M104.948 35.154C104.593 35.154 104.21 35.126 103.8 35.07C103.389 35.0233 102.992 34.9627 102.61 34.888C102.227 34.8133 101.9 34.748 101.63 34.692L101.798 33.264C102.05 33.3013 102.348 33.348 102.694 33.404C103.039 33.4507 103.394 33.488 103.758 33.516C104.122 33.544 104.453 33.558 104.752 33.558C105.228 33.558 105.606 33.4367 105.886 33.194C106.166 32.942 106.306 32.578 106.306 32.102C106.306 31.7753 106.245 31.5187 106.124 31.332C106.012 31.1453 105.844 31.0147 105.62 30.94C105.405 30.856 105.153 30.814 104.864 30.814C104.64 30.814 104.416 30.8373 104.192 30.884C103.968 30.9213 103.758 30.9727 103.562 31.038C103.366 31.094 103.207 31.1547 103.086 31.22L101.826 31.024L102.05 25.76H107.832V27.454H103.562L103.38 29.512C103.51 29.456 103.674 29.4 103.87 29.344C104.066 29.2787 104.276 29.2227 104.5 29.176C104.733 29.1293 104.957 29.106 105.172 29.106C105.816 29.106 106.362 29.1947 106.81 29.372C107.258 29.5493 107.598 29.8433 107.832 30.254C108.074 30.6647 108.196 31.2247 108.196 31.934C108.196 32.6713 108.06 33.278 107.79 33.754C107.528 34.2207 107.155 34.5707 106.67 34.804C106.194 35.0373 105.62 35.154 104.948 35.154Z" fill="#0D0B21"/>
<path d="M40.4707 51.1862L38.3333 47.9802V43.6667C38.3333 41.1914 37.35 38.8174 35.5997 37.067C33.8493 35.3167 31.4753 34.3334 29 34.3334C26.5246 34.3334 24.1507 35.3167 22.4003 37.067C20.65 38.8174 19.6667 41.1914 19.6667 43.6667V47.9802L17.5293 51.1862C17.4126 51.362 17.3456 51.5661 17.3356 51.7769C17.3256 51.9877 17.3729 52.1972 17.4724 52.3833C17.572 52.5693 17.7201 52.7249 17.9011 52.8335C18.082 52.9421 18.289 52.9997 18.5 53H39.5C39.711 52.9997 39.918 52.9421 40.0989 52.8335C40.2798 52.7249 40.428 52.5693 40.5275 52.3833C40.6271 52.1972 40.6744 51.9877 40.6644 51.7769C40.6544 51.5661 40.5874 51.362 40.4707 51.1862Z" fill="#7879F1"/>
<path d="M29 57.6666C30.0344 57.6675 31.0397 57.324 31.8572 56.6903C32.6748 56.0565 33.258 55.1686 33.515 54.1666H24.485C24.742 55.1686 25.3252 56.0565 26.1428 56.6903C26.9603 57.324 27.9656 57.6675 29 57.6666Z" fill="#7879F1"/>
<g filter="url(#filter3_d_2150_29)">
<rect x="28" y="17" width="26" height="26" rx="13" fill="#5ECFFF"/>
</g>
<path d="M36.962 35V27.832L34.778 29.092L34.134 27.706L37.2 25.76H38.866V35H36.962ZM41.6053 35V33.488L43.7193 31.318C44.1206 30.9073 44.466 30.548 44.7553 30.24C45.0446 29.9227 45.264 29.624 45.4133 29.344C45.572 29.064 45.6513 28.7653 45.6513 28.448C45.6513 27.9813 45.5206 27.6687 45.2593 27.51C44.998 27.342 44.578 27.258 43.9993 27.258C43.766 27.258 43.5093 27.272 43.2293 27.3C42.9493 27.328 42.6786 27.3607 42.4173 27.398C42.1653 27.4353 41.946 27.4727 41.7593 27.51L41.6613 26.026C41.8666 25.97 42.1186 25.9093 42.4173 25.844C42.7253 25.7787 43.0566 25.7227 43.4113 25.676C43.7753 25.62 44.13 25.592 44.4753 25.592C45.4833 25.592 46.2533 25.8067 46.7853 26.236C47.3173 26.656 47.5833 27.3093 47.5833 28.196C47.5833 28.6813 47.5133 29.1107 47.3733 29.484C47.2426 29.8573 47.0326 30.2167 46.7433 30.562C46.4633 30.898 46.09 31.2667 45.6233 31.668L43.7753 33.432H47.7093V35H41.6053Z" fill="#0D0B21"/>
<defs>
<filter id="filter0_d_2150_29" x="189" y="0" width="88" height="88" filterUnits="userSpaceOnUse" color-interpolation-filters="sRGB">
<feFlood flood-opacity="0" result="BackgroundImageFix"/>
<feColorMatrix in="SourceAlpha" type="matrix" values="0 0 0 0 0 0 0 0 0 0 0 0 0 0 0 0 0 0 127 0" result="hardAlpha"/>
<feOffset dy="14"/>
<feGaussianBlur stdDeviation="14"/>
<feColorMatrix type="matrix" values="0 0 0 0 0.366667 0 0 0 0 0.810339 0 0 0 0 1 0 0 0 0.12 0"/>
<feBlend mode="normal" in2="BackgroundImageFix" result="effect1_dropShadow_2150_29"/>
<feBlend mode="normal" in="SourceGraphic" in2="effect1_dropShadow_2150_29" result="shape"/>
</filter>
<filter id="filter1_d_2150_29" x="129" y="3" width="82" height="82" filterUnits="userSpaceOnUse" color-interpolation-filters="sRGB">
<feFlood flood-opacity="0" result="BackgroundImageFix"/>
<feColorMatrix in="SourceAlpha" type="matrix" values="0 0 0 0 0 0 0 0 0 0 0 0 0 0 0 0 0 0 127 0" result="hardAlpha"/>
<feOffset dy="14"/>
<feGaussianBlur stdDeviation="14"/>
<feColorMatrix type="matrix" values="0 0 0 0 0.366667 0 0 0 0 0.810339 0 0 0 0 1 0 0 0 0.12 0"/>
<feBlend mode="normal" in2="BackgroundImageFix" result="effect1_dropShadow_2150_29"/>
<feBlend mode="normal" in="SourceGraphic" in2="effect1_dropShadow_2150_29" result="shape"/>
</filter>
<filter id="filter2_d_2150_29" x="64.2468" y="3" width="80.7532" height="80.7532" filterUnits="userSpaceOnUse" color-interpolation-filters="sRGB">
<feFlood flood-opacity="0" result="BackgroundImageFix"/>
<feColorMatrix in="SourceAlpha" type="matrix" values="0 0 0 0 0 0 0 0 0 0 0 0 0 0 0 0 0 0 127 0" result="hardAlpha"/>
<feOffset dy="14"/>
<feGaussianBlur stdDeviation="14"/>
<feColorMatrix type="matrix" values="0 0 0 0 0.366667 0 0 0 0 0.810339 0 0 0 0 1 0 0 0 0.12 0"/>
<feBlend mode="normal" in2="BackgroundImageFix" result="effect1_dropShadow_2150_29"/>
<feBlend mode="normal" in="SourceGraphic" in2="effect1_dropShadow_2150_29" result="shape"/>
</filter>
<filter id="filter3_d_2150_29" x="0" y="3" width="82" height="82" filterUnits="userSpaceOnUse" color-interpolation-filters="sRGB">
<feFlood flood-opacity="0" result="BackgroundImageFix"/>
<feColorMatrix in="SourceAlpha" type="matrix" values="0 0 0 0 0 0 0 0 0 0 0 0 0 0 0 0 0 0 127 0" result="hardAlpha"/>
<feOffset dy="14"/>
<feGaussianBlur stdDeviation="14"/>
<feColorMatrix type="matrix" values="0 0 0 0 0.366667 0 0 0 0 0.810339 0 0 0 0 1 0 0 0 0.12 0"/>
<feBlend mode="normal" in2="BackgroundImageFix" result="effect1_dropShadow_2150_29"/>
<feBlend mode="normal" in="SourceGraphic" in2="effect1_dropShadow_2150_29" result="shape"/>
</filter>
<clipPath id="clip0_2150_29">
<rect width="28" height="28" fill="white" transform="translate(82.9998 32)"/>
</clipPath>
</defs>
</svg>
