<svg width="63" height="35" viewBox="0 0 63 35" fill="none" xmlns="http://www.w3.org/2000/svg">
<rect width="63" height="35" rx="17.5" fill="#E328AF"/>
<path d="M16.882 22V12.438H19.402L22.468 19.158H22.72V12.438H24.652V22H22.16L19.066 15.168H18.814V22H16.882ZM26.4113 22V12.438H32.7673V14.048H28.3433V16.372H31.9273V17.954H28.3433V20.39H32.7673V22H26.4113ZM35.1582 22L33.5342 12.438H35.4802L36.6562 20.138H36.9922L38.4482 12.536H40.6182L42.1022 20.138H42.4382L43.5442 12.438H45.5042L43.9082 22H40.8422L39.4842 14.412H39.5542L38.1822 22H35.1582Z" fill="white"/>
</svg>
