<svg width="433" height="22" viewBox="0 0 433 22" fill="none" xmlns="http://www.w3.org/2000/svg">
<rect x="175" y="4" width="258" height="14" rx="7" fill="#1E1C3A"/>
<rect x="175" y="4" width="116" height="14" rx="7" fill="#6418C3"/>
<path d="M5.46094 17H3.57812V7.17188H0.234375V5.57812H8.79688V7.17188H5.46094V17ZM18.0156 12.6562C18.0156 13.375 17.9219 14.013 17.7344 14.5703C17.5469 15.1276 17.2734 15.599 16.9141 15.9844C16.5547 16.3646 16.1224 16.6562 15.6172 16.8594C15.112 17.0573 14.5417 17.1562 13.9062 17.1562C13.3125 17.1562 12.7682 17.0573 12.2734 16.8594C11.7786 16.6562 11.349 16.3646 10.9844 15.9844C10.625 15.599 10.3464 15.1276 10.1484 14.5703C9.95052 14.013 9.85156 13.375 9.85156 12.6562C9.85156 11.7031 10.0156 10.8958 10.3438 10.2344C10.6771 9.56771 11.151 9.0599 11.7656 8.71094C12.3802 8.36198 13.112 8.1875 13.9609 8.1875C14.7578 8.1875 15.4609 8.36198 16.0703 8.71094C16.6797 9.0599 17.1562 9.56771 17.5 10.2344C17.8438 10.901 18.0156 11.7083 18.0156 12.6562ZM11.7422 12.6562C11.7422 13.2865 11.8177 13.8255 11.9688 14.2734C12.125 14.7214 12.3646 15.0651 12.6875 15.3047C13.0104 15.5391 13.4271 15.6562 13.9375 15.6562C14.4479 15.6562 14.8646 15.5391 15.1875 15.3047C15.5104 15.0651 15.7474 14.7214 15.8984 14.2734C16.0495 13.8255 16.125 13.2865 16.125 12.6562C16.125 12.026 16.0495 11.4922 15.8984 11.0547C15.7474 10.612 15.5104 10.276 15.1875 10.0469C14.8646 9.8125 14.4453 9.69531 13.9297 9.69531C13.1693 9.69531 12.6146 9.95052 12.2656 10.4609C11.9167 10.9714 11.7422 11.7031 11.7422 12.6562ZM23.3438 15.6719C23.5833 15.6719 23.8203 15.651 24.0547 15.6094C24.2891 15.5625 24.5026 15.5078 24.6953 15.4453V16.8359C24.4922 16.9245 24.2292 17 23.9062 17.0625C23.5833 17.125 23.2474 17.1562 22.8984 17.1562C22.4089 17.1562 21.9688 17.0755 21.5781 16.9141C21.1875 16.7474 20.8776 16.4635 20.6484 16.0625C20.4193 15.6615 20.3047 15.1068 20.3047 14.3984V9.75H19.125V8.92969L20.3906 8.28125L20.9922 6.42969H22.1484V8.35156H24.625V9.75H22.1484V14.375C22.1484 14.8125 22.2578 15.138 22.4766 15.3516C22.6953 15.5651 22.9844 15.6719 23.3438 15.6719ZM29.8438 8.1875C30.9375 8.1875 31.763 8.42969 32.3203 8.91406C32.8828 9.39844 33.1641 10.1536 33.1641 11.1797V17H31.8594L31.5078 15.7734H31.4453C31.2005 16.0859 30.9479 16.3438 30.6875 16.5469C30.4271 16.75 30.125 16.901 29.7812 17C29.4427 17.1042 29.0286 17.1562 28.5391 17.1562C28.0234 17.1562 27.5625 17.0625 27.1562 16.875C26.75 16.6823 26.4297 16.3906 26.1953 16C25.9609 15.6094 25.8438 15.1146 25.8438 14.5156C25.8438 13.625 26.1745 12.9557 26.8359 12.5078C27.5026 12.0599 28.5078 11.8125 29.8516 11.7656L31.3516 11.7109V11.2578C31.3516 10.6589 31.2109 10.2318 30.9297 9.97656C30.6536 9.72135 30.263 9.59375 29.7578 9.59375C29.3255 9.59375 28.9062 9.65625 28.5 9.78125C28.0938 9.90625 27.6979 10.0599 27.3125 10.2422L26.7188 8.94531C27.1406 8.72135 27.6198 8.53906 28.1562 8.39844C28.6979 8.25781 29.2604 8.1875 29.8438 8.1875ZM31.3438 12.8672L30.2266 12.9062C29.3099 12.9375 28.6667 13.0938 28.2969 13.375C27.9271 13.6562 27.7422 14.0417 27.7422 14.5312C27.7422 14.9583 27.8698 15.2708 28.125 15.4688C28.3802 15.6615 28.7161 15.7578 29.1328 15.7578C29.7682 15.7578 30.2943 15.5781 30.7109 15.2188C31.1328 14.8542 31.3438 14.3203 31.3438 13.6172V12.8672ZM37.5781 17H35.7344V4.84375H37.5781V17ZM47.8672 5.57812C49.3411 5.57812 50.4167 5.88021 51.0938 6.48438C51.7708 7.08854 52.1094 7.9349 52.1094 9.02344C52.1094 9.51823 52.0312 9.98958 51.875 10.4375C51.724 10.8802 51.474 11.2734 51.125 11.6172C50.776 11.9557 50.3151 12.224 49.7422 12.4219C49.1745 12.6198 48.474 12.7188 47.6406 12.7188H46.4219V17H44.5469V5.57812H47.8672ZM47.7422 7.13281H46.4219V11.1562H47.4453C48.0339 11.1562 48.5339 11.0885 48.9453 10.9531C49.3568 10.8125 49.6693 10.5911 49.8828 10.2891C50.0964 9.98698 50.2031 9.58854 50.2031 9.09375C50.2031 8.43229 50.0026 7.9401 49.6016 7.61719C49.2057 7.29427 48.5859 7.13281 47.7422 7.13281ZM58.5859 8.1875C58.7318 8.1875 58.8906 8.19531 59.0625 8.21094C59.2344 8.22656 59.3828 8.2474 59.5078 8.27344L59.3359 9.99219C59.2266 9.96094 59.0911 9.9375 58.9297 9.92188C58.7734 9.90625 58.6328 9.89844 58.5078 9.89844C58.1797 9.89844 57.8672 9.95312 57.5703 10.0625C57.2734 10.1667 57.0104 10.3281 56.7812 10.5469C56.5521 10.7604 56.3724 11.0286 56.2422 11.3516C56.112 11.6745 56.0469 12.0495 56.0469 12.4766V17H54.2031V8.35156H55.6406L55.8906 9.875H55.9766C56.1484 9.56771 56.362 9.28646 56.6172 9.03125C56.8724 8.77604 57.1641 8.57292 57.4922 8.42188C57.8255 8.26562 58.1901 8.1875 58.5859 8.1875ZM68.7656 12.6562C68.7656 13.375 68.6719 14.013 68.4844 14.5703C68.2969 15.1276 68.0234 15.599 67.6641 15.9844C67.3047 16.3646 66.8724 16.6562 66.3672 16.8594C65.862 17.0573 65.2917 17.1562 64.6562 17.1562C64.0625 17.1562 63.5182 17.0573 63.0234 16.8594C62.5286 16.6562 62.099 16.3646 61.7344 15.9844C61.375 15.599 61.0964 15.1276 60.8984 14.5703C60.7005 14.013 60.6016 13.375 60.6016 12.6562C60.6016 11.7031 60.7656 10.8958 61.0938 10.2344C61.4271 9.56771 61.901 9.0599 62.5156 8.71094C63.1302 8.36198 63.862 8.1875 64.7109 8.1875C65.5078 8.1875 66.2109 8.36198 66.8203 8.71094C67.4297 9.0599 67.9062 9.56771 68.25 10.2344C68.5938 10.901 68.7656 11.7083 68.7656 12.6562ZM62.4922 12.6562C62.4922 13.2865 62.5677 13.8255 62.7188 14.2734C62.875 14.7214 63.1146 15.0651 63.4375 15.3047C63.7604 15.5391 64.1771 15.6562 64.6875 15.6562C65.1979 15.6562 65.6146 15.5391 65.9375 15.3047C66.2604 15.0651 66.4974 14.7214 66.6484 14.2734C66.7995 13.8255 66.875 13.2865 66.875 12.6562C66.875 12.026 66.7995 11.4922 66.6484 11.0547C66.4974 10.612 66.2604 10.276 65.9375 10.0469C65.6146 9.8125 65.1953 9.69531 64.6797 9.69531C63.9193 9.69531 63.3646 9.95052 63.0156 10.4609C62.6667 10.9714 62.4922 11.7031 62.4922 12.6562ZM73.3438 20.8438C72.1719 20.8438 71.2734 20.6328 70.6484 20.2109C70.0234 19.7891 69.7109 19.1979 69.7109 18.4375C69.7109 17.9062 69.8776 17.4557 70.2109 17.0859C70.5443 16.7214 71.0208 16.4688 71.6406 16.3281C71.4062 16.224 71.2031 16.0625 71.0312 15.8438C70.8646 15.6198 70.7812 15.3724 70.7812 15.1016C70.7812 14.7786 70.8724 14.5026 71.0547 14.2734C71.237 14.0443 71.5104 13.8229 71.875 13.6094C71.4219 13.4167 71.0573 13.1042 70.7812 12.6719C70.5104 12.2344 70.375 11.7214 70.375 11.1328C70.375 10.5078 70.5078 9.97656 70.7734 9.53906C71.0391 9.09635 71.4271 8.76042 71.9375 8.53125C72.4479 8.29688 73.0651 8.17969 73.7891 8.17969C73.9453 8.17969 74.1146 8.1901 74.2969 8.21094C74.4844 8.22656 74.6562 8.2474 74.8125 8.27344C74.974 8.29427 75.0964 8.31771 75.1797 8.34375H78.1719V9.36719L76.7031 9.64062C76.8438 9.83854 76.9557 10.0651 77.0391 10.3203C77.1224 10.5703 77.1641 10.8438 77.1641 11.1406C77.1641 12.0365 76.8542 12.7422 76.2344 13.2578C75.6198 13.7682 74.7708 14.0234 73.6875 14.0234C73.4271 14.013 73.1745 13.9922 72.9297 13.9609C72.7422 14.0755 72.599 14.2031 72.5 14.3438C72.401 14.4792 72.3516 14.6328 72.3516 14.8047C72.3516 14.9453 72.401 15.0599 72.5 15.1484C72.599 15.2318 72.7448 15.2943 72.9375 15.3359C73.1354 15.3776 73.375 15.3984 73.6562 15.3984H75.1484C76.0964 15.3984 76.8203 15.599 77.3203 16C77.8203 16.401 78.0703 16.9896 78.0703 17.7656C78.0703 18.75 77.6641 19.5078 76.8516 20.0391C76.0391 20.5755 74.8698 20.8438 73.3438 20.8438ZM73.4141 19.5547C74.0547 19.5547 74.5938 19.4922 75.0312 19.3672C75.4688 19.2422 75.7995 19.0625 76.0234 18.8281C76.2474 18.599 76.3594 18.3255 76.3594 18.0078C76.3594 17.7266 76.2891 17.5104 76.1484 17.3594C76.0078 17.2083 75.7969 17.1042 75.5156 17.0469C75.2344 16.9896 74.8854 16.9609 74.4688 16.9609H73.1094C72.7708 16.9609 72.4714 17.013 72.2109 17.1172C71.9505 17.2266 71.7474 17.3828 71.6016 17.5859C71.4609 17.7891 71.3906 18.0339 71.3906 18.3203C71.3906 18.7161 71.5651 19.0208 71.9141 19.2344C72.2682 19.4479 72.7682 19.5547 73.4141 19.5547ZM73.7734 12.8203C74.3099 12.8203 74.7083 12.6745 74.9688 12.3828C75.2292 12.0859 75.3594 11.6693 75.3594 11.1328C75.3594 10.5495 75.224 10.112 74.9531 9.82031C74.6875 9.52865 74.2917 9.38281 73.7656 9.38281C73.25 9.38281 72.8568 9.53125 72.5859 9.82812C72.3203 10.125 72.1875 10.5651 72.1875 11.1484C72.1875 11.6745 72.3203 12.0859 72.5859 12.3828C72.8568 12.6745 73.2526 12.8203 73.7734 12.8203ZM84.1328 8.1875C84.2786 8.1875 84.4375 8.19531 84.6094 8.21094C84.7812 8.22656 84.9297 8.2474 85.0547 8.27344L84.8828 9.99219C84.7734 9.96094 84.638 9.9375 84.4766 9.92188C84.3203 9.90625 84.1797 9.89844 84.0547 9.89844C83.7266 9.89844 83.4141 9.95312 83.1172 10.0625C82.8203 10.1667 82.5573 10.3281 82.3281 10.5469C82.099 10.7604 81.9193 11.0286 81.7891 11.3516C81.6589 11.6745 81.5938 12.0495 81.5938 12.4766V17H79.75V8.35156H81.1875L81.4375 9.875H81.5234C81.6953 9.56771 81.9089 9.28646 82.1641 9.03125C82.4193 8.77604 82.7109 8.57292 83.0391 8.42188C83.3724 8.26562 83.737 8.1875 84.1328 8.1875ZM90.1016 8.1875C90.8724 8.1875 91.5339 8.34635 92.0859 8.66406C92.638 8.98177 93.0625 9.43229 93.3594 10.0156C93.6562 10.599 93.8047 11.2969 93.8047 12.1094V13.0938H88.0312C88.0521 13.9323 88.276 14.5781 88.7031 15.0312C89.1354 15.4844 89.7396 15.7109 90.5156 15.7109C91.0677 15.7109 91.5625 15.6589 92 15.5547C92.4427 15.4453 92.8984 15.2865 93.3672 15.0781V16.5703C92.9349 16.7734 92.4948 16.9219 92.0469 17.0156C91.599 17.1094 91.0625 17.1562 90.4375 17.1562C89.5885 17.1562 88.8411 16.9922 88.1953 16.6641C87.5547 16.3307 87.0521 15.8359 86.6875 15.1797C86.3281 14.5234 86.1484 13.7083 86.1484 12.7344C86.1484 11.7656 86.3125 10.9427 86.6406 10.2656C86.9688 9.58854 87.4297 9.07292 88.0234 8.71875C88.6172 8.36458 89.3099 8.1875 90.1016 8.1875ZM90.1016 9.57031C89.5234 9.57031 89.0547 9.75781 88.6953 10.1328C88.3411 10.5078 88.1328 11.0573 88.0703 11.7812H92.0078C92.0026 11.349 91.9297 10.9661 91.7891 10.6328C91.6536 10.2995 91.4453 10.0391 91.1641 9.85156C90.888 9.66406 90.5339 9.57031 90.1016 9.57031ZM101.688 14.5312C101.688 15.099 101.549 15.5781 101.273 15.9688C100.997 16.3594 100.594 16.6562 100.062 16.8594C99.5365 17.0573 98.8906 17.1562 98.125 17.1562C97.5208 17.1562 97 17.112 96.5625 17.0234C96.1302 16.9401 95.7214 16.8099 95.3359 16.6328V15.0469C95.7474 15.2396 96.2083 15.4062 96.7188 15.5469C97.2344 15.6875 97.7214 15.7578 98.1797 15.7578C98.7839 15.7578 99.2188 15.6641 99.4844 15.4766C99.75 15.2839 99.8828 15.0286 99.8828 14.7109C99.8828 14.5234 99.8281 14.3568 99.7188 14.2109C99.6146 14.0599 99.4167 13.9062 99.125 13.75C98.8385 13.5885 98.4167 13.3958 97.8594 13.1719C97.3125 12.9531 96.8516 12.7344 96.4766 12.5156C96.1016 12.2969 95.8177 12.0339 95.625 11.7266C95.4323 11.4141 95.3359 11.0156 95.3359 10.5312C95.3359 9.76562 95.638 9.1849 96.2422 8.78906C96.8516 8.38802 97.6562 8.1875 98.6562 8.1875C99.1875 8.1875 99.6875 8.24219 100.156 8.35156C100.63 8.45573 101.094 8.60938 101.547 8.8125L100.969 10.1953C100.578 10.0234 100.185 9.88281 99.7891 9.77344C99.3984 9.65885 99 9.60156 98.5938 9.60156C98.1198 9.60156 97.7578 9.67448 97.5078 9.82031C97.263 9.96615 97.1406 10.1745 97.1406 10.4453C97.1406 10.6484 97.2005 10.8203 97.3203 10.9609C97.4401 11.1016 97.6458 11.2422 97.9375 11.3828C98.2344 11.5234 98.6458 11.6979 99.1719 11.9062C99.6875 12.1042 100.133 12.3125 100.508 12.5312C100.888 12.7448 101.18 13.0078 101.383 13.3203C101.586 13.6328 101.688 14.0365 101.688 14.5312ZM109.484 14.5312C109.484 15.099 109.346 15.5781 109.07 15.9688C108.794 16.3594 108.391 16.6562 107.859 16.8594C107.333 17.0573 106.688 17.1562 105.922 17.1562C105.318 17.1562 104.797 17.112 104.359 17.0234C103.927 16.9401 103.518 16.8099 103.133 16.6328V15.0469C103.544 15.2396 104.005 15.4062 104.516 15.5469C105.031 15.6875 105.518 15.7578 105.977 15.7578C106.581 15.7578 107.016 15.6641 107.281 15.4766C107.547 15.2839 107.68 15.0286 107.68 14.7109C107.68 14.5234 107.625 14.3568 107.516 14.2109C107.411 14.0599 107.214 13.9062 106.922 13.75C106.635 13.5885 106.214 13.3958 105.656 13.1719C105.109 12.9531 104.648 12.7344 104.273 12.5156C103.898 12.2969 103.615 12.0339 103.422 11.7266C103.229 11.4141 103.133 11.0156 103.133 10.5312C103.133 9.76562 103.435 9.1849 104.039 8.78906C104.648 8.38802 105.453 8.1875 106.453 8.1875C106.984 8.1875 107.484 8.24219 107.953 8.35156C108.427 8.45573 108.891 8.60938 109.344 8.8125L108.766 10.1953C108.375 10.0234 107.982 9.88281 107.586 9.77344C107.195 9.65885 106.797 9.60156 106.391 9.60156C105.917 9.60156 105.555 9.67448 105.305 9.82031C105.06 9.96615 104.938 10.1745 104.938 10.4453C104.938 10.6484 104.997 10.8203 105.117 10.9609C105.237 11.1016 105.443 11.2422 105.734 11.3828C106.031 11.5234 106.443 11.6979 106.969 11.9062C107.484 12.1042 107.93 12.3125 108.305 12.5312C108.685 12.7448 108.977 13.0078 109.18 13.3203C109.383 13.6328 109.484 14.0365 109.484 14.5312ZM115.047 12.1328C115.047 11.4609 115.094 10.7995 115.188 10.1484C115.286 9.4974 115.453 8.88802 115.688 8.32031C115.922 7.7526 116.245 7.2526 116.656 6.82031C117.073 6.38802 117.596 6.04948 118.227 5.80469C118.857 5.55469 119.615 5.42969 120.5 5.42969C120.729 5.42969 120.987 5.4401 121.273 5.46094C121.56 5.48177 121.797 5.51562 121.984 5.5625V7.08594C121.781 7.02865 121.557 6.98438 121.312 6.95312C121.073 6.92188 120.833 6.90625 120.594 6.90625C119.635 6.90625 118.888 7.08854 118.352 7.45312C117.815 7.8125 117.432 8.30729 117.203 8.9375C116.974 9.5625 116.841 10.2786 116.805 11.0859H116.898C117.055 10.8255 117.25 10.5938 117.484 10.3906C117.719 10.1875 118.005 10.026 118.344 9.90625C118.682 9.78125 119.076 9.71875 119.523 9.71875C120.19 9.71875 120.771 9.85938 121.266 10.1406C121.76 10.4167 122.141 10.8177 122.406 11.3438C122.677 11.8698 122.812 12.5078 122.812 13.2578C122.812 14.0651 122.659 14.7604 122.352 15.3438C122.049 15.9271 121.617 16.375 121.055 16.6875C120.497 17 119.833 17.1562 119.062 17.1562C118.495 17.1562 117.966 17.0521 117.477 16.8438C116.992 16.6354 116.568 16.3229 116.203 15.9062C115.839 15.4896 115.555 14.9688 115.352 14.3438C115.148 13.7135 115.047 12.9766 115.047 12.1328ZM119.031 15.6406C119.625 15.6406 120.102 15.4479 120.461 15.0625C120.826 14.6719 121.008 14.0755 121.008 13.2734C121.008 12.6224 120.846 12.1068 120.523 11.7266C120.206 11.3464 119.727 11.1562 119.086 11.1562C118.648 11.1562 118.266 11.25 117.938 11.4375C117.609 11.625 117.354 11.862 117.172 12.1484C116.995 12.4349 116.906 12.7266 116.906 13.0234C116.906 13.3255 116.951 13.6302 117.039 13.9375C117.128 14.2448 117.26 14.5286 117.438 14.7891C117.615 15.0443 117.836 15.25 118.102 15.4062C118.367 15.5625 118.677 15.6406 119.031 15.6406ZM131.922 11.2812C131.922 12.2031 131.849 13.0286 131.703 13.7578C131.562 14.4818 131.339 15.0964 131.031 15.6016C130.724 16.1068 130.323 16.4922 129.828 16.7578C129.333 17.0234 128.734 17.1562 128.031 17.1562C127.151 17.1562 126.424 16.9245 125.852 16.4609C125.279 15.9922 124.854 15.3203 124.578 14.4453C124.302 13.5651 124.164 12.5104 124.164 11.2812C124.164 10.0521 124.289 9 124.539 8.125C124.794 7.24479 125.206 6.57031 125.773 6.10156C126.341 5.63281 127.094 5.39844 128.031 5.39844C128.917 5.39844 129.646 5.63281 130.219 6.10156C130.797 6.5651 131.224 7.23698 131.5 8.11719C131.781 8.99219 131.922 10.0469 131.922 11.2812ZM126.016 11.2812C126.016 12.2448 126.078 13.0495 126.203 13.6953C126.333 14.3411 126.547 14.8255 126.844 15.1484C127.141 15.4661 127.536 15.625 128.031 15.625C128.526 15.625 128.922 15.4661 129.219 15.1484C129.516 14.8307 129.729 14.349 129.859 13.7031C129.995 13.0573 130.062 12.25 130.062 11.2812C130.062 10.3229 129.997 9.52083 129.867 8.875C129.737 8.22917 129.523 7.74479 129.227 7.42188C128.93 7.09375 128.531 6.92969 128.031 6.92969C127.531 6.92969 127.133 7.09375 126.836 7.42188C126.544 7.74479 126.333 8.22917 126.203 8.875C126.078 9.52083 126.016 10.3229 126.016 11.2812ZM135.781 5.41406C136.62 5.41406 137.255 5.72656 137.688 6.35156C138.12 6.97135 138.336 7.84896 138.336 8.98438C138.336 10.1146 138.128 10.9974 137.711 11.6328C137.299 12.2682 136.656 12.5859 135.781 12.5859C134.964 12.5859 134.341 12.2682 133.914 11.6328C133.487 10.9974 133.273 10.1146 133.273 8.98438C133.273 7.84896 133.474 6.97135 133.875 6.35156C134.281 5.72656 134.917 5.41406 135.781 5.41406ZM135.789 6.69531C135.451 6.69531 135.201 6.88542 135.039 7.26562C134.883 7.64583 134.805 8.22135 134.805 8.99219C134.805 9.75781 134.883 10.3359 135.039 10.7266C135.201 11.112 135.451 11.3047 135.789 11.3047C136.133 11.3047 136.388 11.112 136.555 10.7266C136.727 10.3411 136.812 9.76302 136.812 8.99219C136.812 8.22656 136.729 7.65365 136.562 7.27344C136.396 6.88802 136.138 6.69531 135.789 6.69531ZM143.453 5.57812L137.117 17H135.609L141.945 5.57812H143.453ZM143.242 9.98438C144.081 9.98438 144.716 10.2969 145.148 10.9219C145.586 11.5417 145.805 12.4193 145.805 13.5547C145.805 14.6797 145.596 15.5599 145.18 16.1953C144.768 16.8307 144.122 17.1484 143.242 17.1484C142.424 17.1484 141.802 16.8307 141.375 16.1953C140.948 15.5599 140.734 14.6797 140.734 13.5547C140.734 12.4193 140.935 11.5417 141.336 10.9219C141.742 10.2969 142.378 9.98438 143.242 9.98438ZM143.25 11.2656C142.911 11.2656 142.661 11.4557 142.5 11.8359C142.344 12.2161 142.266 12.7917 142.266 13.5625C142.266 14.3281 142.344 14.9062 142.5 15.2969C142.661 15.6823 142.911 15.875 143.25 15.875C143.599 15.875 143.857 15.6849 144.023 15.3047C144.19 14.9193 144.273 14.3385 144.273 13.5625C144.273 12.7969 144.19 12.224 144.023 11.8438C143.857 11.4583 143.599 11.2656 143.25 11.2656Z" fill="white"/>
</svg>
